<svg xmlns="http://www.w3.org/2000/svg" viewBox="0 0 1280 720" font-family="Inter, 'Segoe UI', Helvetica, Arial, sans-serif">
  <rect width="1280" height="720" fill="#18181b"/>
  <g fill="none" stroke="#27272a" stroke-width="1">
    <path d="M0 120H1280M0 240H1280M0 360H1280M0 480H1280M0 600H1280"/>
    <path d="M160 0V720M320 0V720M480 0V720M640 0V720M800 0V720M960 0V720M1120 0V720"/>
  </g>

  <!-- App window -->
  <rect x="140" y="80" width="1000" height="570" rx="16" fill="#fafafa"/>
  <path d="M156 80h968a16 16 0 0 1 16 16v38H140V96a16 16 0 0 1 16-16z" fill="#f4f4f5"/>
  <circle cx="166" cy="107" r="6" fill="#d4d4d8"/><circle cx="186" cy="107" r="6" fill="#d4d4d8"/><circle cx="206" cy="107" r="6" fill="#d4d4d8"/>
  <text x="232" y="114" fill="#18181b" font-size="19" font-weight="700">Point of Sale</text>
  <rect x="372" y="94" width="66" height="26" rx="13" fill="#e4e4e7"/>
  <text x="405" y="112" text-anchor="middle" fill="#3f3f46" font-size="13" font-weight="600">Lane 1</text>
  <rect x="1038" y="94" width="82" height="26" rx="13" fill="#d1fae5"/>
  <text x="1079" y="112" text-anchor="middle" fill="#047857" font-size="13" font-weight="600">Online</text>
  <path d="M140 134H1140" stroke="#e4e4e7"/>

  <!-- Basket -->
  <g font-size="12" font-weight="600" fill="#71717a" letter-spacing="0.5">
    <text x="170" y="168">ITEM</text><text x="500" y="168">QTY / WEIGHT</text><text x="690" y="168" text-anchor="end">TOTAL</text>
  </g>
  <path d="M160 180H700" stroke="#e4e4e7"/>
  <g>
    <text x="170" y="214" fill="#18181b" font-size="18" font-weight="600">Bananas</text>
    <text x="170" y="236" fill="#71717a" font-size="13">0.748 kg × 65.00 / kg</text>
    <text x="500" y="222" fill="#3f3f46" font-size="15">0.748 kg</text>
    <text x="690" y="222" text-anchor="end" fill="#18181b" font-size="16" font-weight="700">48.62</text>
    <path d="M160 254H700" stroke="#f4f4f5"/>
    <text x="170" y="286" fill="#18181b" font-size="18" font-weight="600">Apples</text>
    <text x="170" y="308" fill="#71717a" font-size="13">1.353 kg × 120.00 / kg</text>
    <text x="500" y="294" fill="#3f3f46" font-size="15">1.353 kg</text>
    <text x="690" y="294" text-anchor="end" fill="#18181b" font-size="16" font-weight="700">162.36</text>
    <rect x="160" y="326" width="540" height="70" rx="8" fill="#ecfdf5"/>
    <text x="170" y="358" fill="#18181b" font-size="18" font-weight="600">Limes</text>
    <text x="170" y="380" fill="#71717a" font-size="13">0.280 kg × 90.00 / kg</text>
    <text x="500" y="366" fill="#3f3f46" font-size="15">0.280 kg</text>
    <text x="690" y="366" text-anchor="end" fill="#18181b" font-size="16" font-weight="700">25.20</text>
  </g>
  <g font-size="12" fill="#71717a">
    <rect x="170" y="604" width="64" height="22" rx="5" fill="#e0f2fe"/><text x="202" y="619" text-anchor="middle" fill="#0369a1" font-weight="600">VAT 15%</text>
    <text x="244" y="619">standard</text>
    <rect x="312" y="604" width="56" height="22" rx="5" fill="#ecfdf5"/><text x="340" y="619" text-anchor="middle" fill="#047857" font-weight="600">VAT 0%</text>
    <text x="378" y="619">staples</text>
  </g>

  <!-- Totals and actions -->
  <path d="M715 134V650" stroke="#e4e4e7"/>
  <g font-size="15">
    <text x="740" y="172" fill="#3f3f46">Subtotal (3 items)</text><text x="1110" y="172" text-anchor="end" fill="#18181b" font-weight="600">236.18</text>
    <text x="740" y="198" fill="#71717a" font-size="13">VAT 15%</text><text x="1110" y="198" text-anchor="end" fill="#71717a" font-size="13">0.00</text>
    <text x="740" y="220" fill="#71717a" font-size="13">VAT 0%</text><text x="1110" y="220" text-anchor="end" fill="#71717a" font-size="13">236.18</text>
  </g>
  <path d="M730 238H1125" stroke="#e4e4e7"/>
  <text x="740" y="268" fill="#71717a" font-size="12" font-weight="600" letter-spacing="0.5">AMOUNT DUE (VAT INCL.)</text>
  <text x="740" y="326" fill="#b91c1c" font-size="56" font-weight="700" letter-spacing="-1">236.18</text>
  <rect x="740" y="350" width="370" height="60" rx="10" fill="#059669"/>
  <text x="925" y="388" text-anchor="middle" fill="#ffffff" font-size="22" font-weight="700">Pay 236.18</text>
  <g font-size="14" font-weight="600" fill="#3f3f46" text-anchor="middle">
    <rect x="740" y="428" width="118" height="58" rx="8" fill="#f4f4f5" stroke="#e4e4e7"/><text x="799" y="462">Weigh</text>
    <rect x="866" y="428" width="118" height="58" rx="8" fill="#f4f4f5" stroke="#e4e4e7"/><text x="925" y="462">Quantity</text>
    <rect x="992" y="428" width="118" height="58" rx="8" fill="#f4f4f5" stroke="#e4e4e7"/><text x="1051" y="462">Loyalty</text>
    <rect x="740" y="494" width="118" height="58" rx="8" fill="#f4f4f5" stroke="#e4e4e7"/><text x="799" y="528">Discount</text>
    <rect x="866" y="494" width="118" height="58" rx="8" fill="#fef2f2" stroke="#fecaca"/><text x="925" y="528" fill="#b91c1c">Void line</text>
    <rect x="992" y="494" width="118" height="58" rx="8" fill="#f4f4f5" stroke="#e4e4e7"/><text x="1051" y="528">Hold sale</text>
    <rect x="740" y="566" width="182" height="52" rx="8" fill="#ffffff" stroke="#d4d4d8"/><text x="831" y="597">New sale</text>
    <rect x="928" y="566" width="182" height="52" rx="8" fill="#ffffff" stroke="#059669"/><text x="1019" y="597" fill="#047857">Quick-pick items</text>
  </g>
</svg>
